<svg width="58" height="16" viewBox="0 0 58 16" fill="none" xmlns="http://www.w3.org/2000/svg">
<path d="M7.71217 16C6.61736 16 5.59877 15.7989 4.6564 15.3966C3.7279 14.9944 2.91025 14.4395 2.20348 13.7321C1.51056 13.0108 0.970084 12.1647 0.582051 11.1938C0.194017 10.2228 0 9.15475 0 7.9896C0 6.83832 0.187088 5.7772 0.561263 4.80624C0.949297 3.82141 1.48977 2.97529 2.18269 2.26788C2.87561 1.5466 3.68632 0.991764 4.61483 0.603381C5.54334 0.201127 6.56193 0 7.6706 0C8.7654 0 9.74242 0.187256 10.6016 0.561769C11.4747 0.936281 12.2092 1.4287 12.8051 2.03901C13.401 2.63546 13.8306 3.28739 14.0939 3.9948L11.9112 5.05592C11.5925 4.2098 11.0659 3.53012 10.3314 3.0169C9.59691 2.48981 8.70997 2.22627 7.6706 2.22627C6.64508 2.22627 5.73736 2.46901 4.94743 2.95449C4.1575 3.43997 3.54081 4.1127 3.09734 4.97269C2.66773 5.83268 2.45293 6.83832 2.45293 7.9896C2.45293 9.14087 2.67466 10.1534 3.11813 11.0273C3.57545 11.8873 4.19908 12.56 4.989 13.0455C5.77893 13.5171 6.68665 13.7529 7.71217 13.7529C8.57139 13.7529 9.35438 13.5795 10.0612 13.2328C10.7818 12.8721 11.3569 12.3728 11.7865 11.7347C12.2161 11.0828 12.4309 10.3268 12.4309 9.46684V8.40572L13.5327 9.40442H7.6706V7.3238H14.8631V8.78023C14.8631 9.91764 14.6691 10.9371 14.281 11.8388C13.893 12.7265 13.3664 13.4824 12.7012 14.1066C12.036 14.7308 11.2738 15.2024 10.4145 15.5215C9.55533 15.8405 8.65454 16 7.71217 16Z" fill="#373737"/>
<path d="M20.5064 16C19.7442 16 19.0721 15.8682 18.49 15.6047C17.9218 15.3273 17.4784 14.9528 17.1596 14.4811C16.8409 13.9957 16.6815 13.427 16.6815 12.775C16.6815 12.1647 16.8132 11.6168 17.0765 11.1313C17.3536 10.6459 17.7763 10.2367 18.3445 9.90377C18.9127 9.57087 19.6264 9.33507 20.4856 9.19636L24.3937 8.55136V10.4031L20.9429 11.0065C20.3193 11.1175 19.862 11.3186 19.571 11.6099C19.2799 11.8873 19.1344 12.2479 19.1344 12.6918C19.1344 13.1218 19.2938 13.4755 19.6125 13.7529C19.9451 14.0165 20.3678 14.1482 20.8806 14.1482C21.5181 14.1482 22.0724 14.0095 22.5436 13.7321C23.0286 13.4547 23.4028 13.0871 23.6661 12.6294C23.9294 12.1578 24.0611 11.6376 24.0611 11.0689V8.17685C24.0611 7.62202 23.8532 7.17122 23.4374 6.82445C23.0355 6.46381 22.4951 6.28348 21.816 6.28348C21.1924 6.28348 20.645 6.44993 20.1738 6.78283C19.7165 7.10186 19.3769 7.51799 19.1552 8.03121L17.2012 7.05332C17.4091 6.49848 17.7486 6.013 18.2198 5.59688C18.691 5.16688 19.2384 4.83398 19.862 4.59818C20.4995 4.36238 21.1716 4.24447 21.8784 4.24447C22.7653 4.24447 23.5483 4.41092 24.2274 4.74382C24.9203 5.07672 25.4538 5.5414 25.828 6.13784C26.216 6.72042 26.4101 7.40009 26.4101 8.17685V15.7503H24.165V13.7113L24.6431 13.7737C24.3798 14.2315 24.0403 14.6268 23.6245 14.9597C23.2226 15.2926 22.7584 15.5492 22.2318 15.7295C21.719 15.9098 21.1439 16 20.5064 16Z" fill="#373737"/>
<path d="M29.1566 15.7503V4.49415H31.4017V6.92848L31.1106 6.55397C31.3462 5.79107 31.7758 5.21543 32.3995 4.82705C33.0231 4.43866 33.7368 4.24447 34.5406 4.24447C35.4414 4.24447 36.2382 4.48721 36.9311 4.97269C37.6379 5.4443 38.1091 6.07542 38.3447 6.86606L37.6795 6.92848C38.0121 6.02687 38.5179 5.35414 39.197 4.91027C39.8899 4.46641 40.6798 4.24447 41.5668 4.24447C42.3428 4.24447 43.0427 4.42479 43.6663 4.78544C44.3038 5.14608 44.8096 5.64543 45.1838 6.28348C45.558 6.92154 45.745 7.64976 45.745 8.46814V15.7503H43.3961V9.11313C43.3961 8.54443 43.2921 8.06589 43.0842 7.6775C42.8902 7.27525 42.6131 6.97009 42.2527 6.76203C41.9063 6.54009 41.4975 6.42913 41.0263 6.42913C40.5551 6.42913 40.1393 6.54009 39.779 6.76203C39.4187 6.97009 39.1346 7.27525 38.9267 7.6775C38.7189 8.07976 38.6149 8.5583 38.6149 9.11313V15.7503H36.2867V9.11313C36.2867 8.54443 36.1828 8.06589 35.9749 7.6775C35.7809 7.27525 35.5037 6.97009 35.1434 6.76203C34.797 6.54009 34.3812 6.42913 33.8962 6.42913C33.425 6.42913 33.0092 6.54009 32.6489 6.76203C32.2886 6.97009 32.0045 7.27525 31.7966 7.6775C31.6026 8.07976 31.5056 8.5583 31.5056 9.11313V15.7503H29.1566Z" fill="#373737"/>
<path d="M51.6268 16C50.8646 16 50.1924 15.8682 49.6104 15.6047C49.0422 15.3273 48.5987 14.9528 48.28 14.4811C47.9612 13.9957 47.8019 13.427 47.8019 12.775C47.8019 12.1647 47.9335 11.6168 48.1968 11.1313C48.474 10.6459 48.8967 10.2367 49.4649 9.90377C50.0331 9.57087 50.7468 9.33507 51.606 9.19636L55.514 8.55136V10.4031L52.0633 11.0065C51.4397 11.1175 50.9824 11.3186 50.6913 11.6099C50.4003 11.8873 50.2548 12.2479 50.2548 12.6918C50.2548 13.1218 50.4142 13.4755 50.7329 13.7529C51.0655 14.0165 51.4882 14.1482 52.001 14.1482C52.6384 14.1482 53.1928 14.0095 53.664 13.7321C54.149 13.4547 54.5232 13.0871 54.7865 12.6294C55.0498 12.1578 55.1814 11.6376 55.1814 11.0689V8.17685C55.1814 7.62202 54.9736 7.17122 54.5578 6.82445C54.1559 6.46381 53.6155 6.28348 52.9364 6.28348C52.3128 6.28348 51.7654 6.44993 51.2942 6.78283C50.8369 7.10186 50.4973 7.51799 50.2756 8.03121L48.3216 7.05332C48.5294 6.49848 48.869 6.013 49.3402 5.59688C49.8113 5.16688 50.3587 4.83398 50.9824 4.59818C51.6199 4.36238 52.292 4.24447 52.9988 4.24447C53.8857 4.24447 54.6687 4.41092 55.3477 4.74382C56.0407 5.07672 56.5742 5.5414 56.9484 6.13784C57.3364 6.72042 57.5304 7.40009 57.5304 8.17685V15.7503H55.2854V13.7113L55.7635 13.7737C55.5002 14.2315 55.1607 14.6268 54.7449 14.9597C54.343 15.2926 53.8788 15.5492 53.3521 15.7295C52.8394 15.9098 52.2643 16 51.6268 16Z" fill="#373737"/>
</svg>
