<svg width="62" height="62" viewBox="0 0 62 62" fill="none" xmlns="http://www.w3.org/2000/svg">
<path d="M0 6C0 2.68629 2.68629 0 6 0H56C59.3137 0 62 2.68629 62 6V56C62 59.3137 59.3137 62 56 62H6C2.68629 62 0 59.3137 0 56V6Z" fill="#FAFAFA"/>
<path d="M23 23.5146H26.8059C31.0098 23.5146 34.4177 26.9226 34.4177 31.1264V48.253H30.6118C26.4079 48.253 23 44.8451 23 40.6412V23.5146Z" fill="#48B832"/>
<path d="M29.7554 33.0294H33.5613C36.7142 33.0294 39.2701 35.5854 39.2701 38.7383V48.253H35.4642C32.3113 48.253 29.7554 45.6971 29.7554 42.5442V33.0294Z" fill="#126306" fill-opacity="0.8"/>
<circle cx="34.5127" cy="18.7574" r="4.75737" fill="#FFCD30"/>
</svg>
